<svg width="42" height="42" viewBox="0 0 42 42" fill="none" xmlns="http://www.w3.org/2000/svg">
  <!-- Modular cluster base -->
  <path opacity="0.15" fill-rule="evenodd" clip-rule="evenodd" d="M21 3C11.506 3 3 11.506 3 21C3 30.494 11.506 39 21 39C30.494 39 39 30.494 39 21C39 11.506 30.494 3 21 3ZM26.5 12.5C28.709 12.5 30.5 14.291 30.5 16.5C30.5 18.709 28.709 20.5 26.5 20.5C24.291 20.5 22.5 18.709 22.5 16.5C22.5 14.291 24.291 12.5 26.5 12.5ZM15.5 21.5C17.709 21.5 19.5 23.291 19.5 25.5C19.5 27.709 17.709 29.5 15.5 29.5C13.291 29.5 11.5 27.709 11.5 25.5C11.5 23.291 13.291 21.5 15.5 21.5Z" fill="url(#base_grad)"/>

  <!-- Inter-service communication -->
  <path d="M12 15L21 10L30 15M12 27L21 32L30 27" stroke="url(#com_grad)" stroke-width="1.2" stroke-linecap="round"/>
  
  <!-- Service nodes -->
  <rect x="10" y="10" width="6" height="8" rx="1" fill="url(#node_grad)"/>
  <rect x="26" y="10" width="6" height="8" rx="1" fill="url(#node_grad)"/>
  <rect x="10" y="24" width="6" height="8" rx="1" fill="url(#node_grad)"/>
  <rect x="26" y="24" width="6" height="8" rx="1" fill="url(#node_grad)"/>
  
  <!-- Central orchestrator -->
  <path d="M18 18H24V24H18V18Z" fill="url(#orch_fill)" stroke="url(#orch_stroke)" stroke-width="1.2"/>
  <path d="M21 15L24 18L21 21L18 18L21 15Z" fill="url(#data_grad)"/>

  <!-- Data flow arrows -->
  <path d="M15 19L21 16L27 19" stroke="url(#flow_grad)" stroke-width="1.5"/>
  <path d="M15 23L21 26L27 23" stroke="url(#flow_grad)" stroke-width="1.5"/>

  <defs>
    <linearGradient id="base_grad" x1="3" y1="3" x2="39" y2="39">
      <stop offset="0.25" stop-color="#FFDB6E"/>
      <stop offset="1" stop-color="#FFBC5E"/>
    </linearGradient>
    
    <linearGradient id="node_grad" x1="10" y1="10" x2="32" y2="32">
      <stop offset="0.3" stop-color="#FFDB6E"/>
      <stop offset="0.9" stop-color="#FFBC5E"/>
    </linearGradient>

    <linearGradient id="com_grad" x1="12" y1="15" x2="30" y2="27">
      <stop offset="0.25" stop-color="#FFDB6E"/>
      <stop offset="0.75" stop-color="#FFBC5E"/>
    </linearGradient>

    <linearGradient id="orch_fill" x1="18" y1="18" x2="24" y2="24">
      <stop offset="0.25" stop-color="#FFDB6E" stop-opacity="0.15"/>
      <stop offset="0.75" stop-color="#FFBC5E" stop-opacity="0.15"/>
    </linearGradient>

    <linearGradient id="orch_stroke" x1="18" y1="18" x2="24" y2="24">
      <stop offset="0.25" stop-color="#FFDB6E"/>
      <stop offset="0.75" stop-color="#FFBC5E"/>
    </linearGradient>

    <linearGradient id="data_grad" x1="18" y1="15" x2="24" y2="21">
      <stop offset="0.25" stop-color="#FFDB6E"/>
      <stop offset="0.75" stop-color="#FFBC5E"/>
    </linearGradient>

    <linearGradient id="flow_grad" x1="15" y1="19" x2="27" y2="23">
      <stop offset="0.25" stop-color="#FFDB6E"/>
      <stop offset="0.75" stop-color="#FFBC5E"/>
    </linearGradient>
  </defs>
</svg>